<?xml version="1.0" encoding="UTF-8"?>
<svg id="Layer_1" data-name="Layer 1" xmlns="http://www.w3.org/2000/svg" viewBox="0 0 308.59 480.24">
  <defs>
    <style>
      .cls-1 {
        stroke: #231f20;
        stroke-miterlimit: 10;
      }
    </style>
  </defs>
  <path class="cls-1" d="m41.05,379.54c-23.4,39.72-.71,56.03-.71,56.03,0-47.52,61.7-38.3,61.7-38.3,40.43-14.89-15.6,43.26-15.6,43.26,39.01-37.59,51.55-11.11,43.26,12.06-8.28,23.16-50.35,4.96-50.35,4.96,76.6,56.74,83.69-44.68,83.69-44.68-24.11,66.67-42.55-36.17-42.55-36.17,45.39-31.91,34.04-74.47,34.04-74.47-18.44-36.17,4.26-28.37,4.26-28.37-33.33-36.88,11.35-14.18,11.35-14.18-48.94-52.48-26.95,37.59-26.95,37.59,32.62,35.46-34.04,67.38-34.04,67.38-47.35,70.06-2.13-43.97-2.13-43.97-29.08,7.09,24.82-77.3,24.82-77.3,18.44-70.92,2.84-82.98,2.84-82.98-18.44-13.48,15.9-.71,15.9-.71-24.52-58.16,19.56-10.64,19.56-10.64-24.11-57.45-58.16-55.32-58.16-55.32,38.3,17.73,19.86,44.68,19.86,44.68-9.45,9.68-42.06-25.56-42.06-25.56-15.3,34.61-25.67-13.74-28.59-22.32-6.52-19.19-21.55,44.33-21.55,44.33-7.55,9.97-10.65-13.19-10.65-13.19-5.67,68.09,24.13,1.13,24.13,1.13-2.13-55.32,19.55,24.62,19.55,24.62,2.64-30.26,47.83,11.55,47.83,11.55-1.37,45.68-18.17,12.32-18.17,12.32,5.41,23.9-8.17,35.84-5.73,18.18,2.08-15.03-5.78-37.24-26.38-31.72-64.53,17.29-51.14-8.7-51.14-8.7-25.21,25.55,20.57,19.15,20.57,19.15,95.04-14.18,51.03,174.77,24.82,171.63-47.16-5.65-23.4-146.81-23.4-146.81-48.72,110.76,34.76,197.15,34.76,197.15,0,0-19.57-14.34-32.64,13.48-16.07,34.23-2.13-24.11-2.13-24.11Z"/>
  <path class="cls-1" d="m77.86,205.25c-3.36-28.07-19.55-10.88-19.55-10.88,16.85,8.69-14.7,61.84-14.7,61.84-13.25,38.65-8.19-21.78-8.19-21.78-4.55,41.54-19.69,47.84-24.11,36.24-4.42-11.6,21.32-45.66,21.32-45.66-55.23,57.69-22.52,82.55-22.52,82.55-12.59-33.63,32.33-31.2,32.33-31.2-9.49,46.18,10.8,43.88,10.8,43.88,21.28-9.77,8.11,8.97,8.11,8.97,28.36-22.88-.17,12.68-.17,12.68,41.05-33.89-.98-30.83-.98-30.83-27.53,22.51-8.29-42.58-8.29-42.58-3.14-54.9,16.57,6.15,16.57,6.15,10.81-27.14,16.04,36.2,16.04,36.2,16.7,29.36,28.13,17.7,28.13,17.7,13.23-13.92-7.04,14.26-7.04,14.26,31.87-11.16-5.19,19.33-5.19,19.33,31.43-10.92,46.28-41.57,46.28-41.57-23.84,30.79-24.95,9.48-24.95,9.48.9-10.17,28.34-32.71,28.34-32.71-5.26-19.93,16.64-20.31,21.02-21.33,9.79-2.29-5.85-27.26-5.85-27.26-.08-8.53,9.56-7.06,9.56-7.06-21.55-17.5-11.46,21.24-11.46,21.24,20.59,8.23-17.69,12.87-17.69,12.87,9.52,7.88-26.02,40.4-26.02,40.4-15.57-9.57,3.96-18.4,3.96-18.4-10.95.43-8.96-13.82-3.82-8.41,4.38,4.6,15.86,1.68,23.34-17.64,23.45-60.52,26.53-43.86,26.53-43.86,2.5-27.08-16.22,14.78-16.22,14.78-38.53,87.06-85.38,13.38-72.25-9.34,23.62-40.88,62.79,6.06,62.79,6.06-16.95-63.56-85.86-5.17-85.86-5.17,0,0,14.06-14.77,10.18-31.47-4.77-20.54,9.53,2.52,9.53,2.52Z"/>
  <path class="cls-1" d="m205.63,121.66c21.5,18.35,21.74-5.26,21.74-5.26-18.28,5.04-31.14-55.42-31.14-55.42-16.48-37.39,20.79,10.45,20.79,10.45-24.83-33.61-17.98-48.51-6.87-42.98,11.11,5.53,15.3,48.01,15.3,48.01C226.91-3.39,186.01.53,186.01.53c32.06,16.17-2.6,44.86-2.6,44.86-24.35-40.37-37.7-24.91-37.7-24.91-9.01,21.61-12.04-1.09-12.04-1.09-5.32,36.05-8.47-9.43-8.47-9.43-7.17,52.74,21.63,21.99,21.63,21.99,4.97-35.21,34.97,25.67,34.97,25.67,39.54,38.21-16.35,6.72-16.35,6.72,10.46,27.28-36.34-15.72-36.34-15.72-32.19-10.25-32.67,6.07-32.67,6.07-.28,19.21-4.5-15.25-4.5-15.25-15.85,29.81-9.29-17.73-9.29-17.73-15.69,29.34-5.81,61.93-5.81,61.93-3.36-38.8,11.91-23.88,11.91-23.88,6.24,8.09,1.35,43.26,1.35,43.26,17.38,11.08,1.54,26.21-.98,29.93-5.65,8.32,22.78,16.07,22.78,16.07,5.84,6.22-2.24,11.67-2.24,11.67,27.7-1.76-5.98-23.38-5.98-23.38-20.71,7.92,4.27-21.45,4.27-21.45-12.34.67-8.28-47.33-8.28-47.33,17.93-3.53,9.57,16.21,9.57,16.21,7.76-7.75,15.96,4.07,8.52,3.59-6.33-.41-12.79,9.52-5.19,28.79,23.81,60.38,10.25,50.22,10.25,50.22,16.53,21.59,1.9-21.86,1.9-21.86-30.73-90.11,53.66-67.74,59.42-42.14,10.37,46.06-50.25,38.14-50.25,38.14,55.56,35.21,66.6-54.44,66.6-54.44,0,0-.31,20.39,13.87,30.03,17.44,11.86-8.71,4.61-8.71,4.61Z"/>
  <path class="cls-1" d="m286.1,293.77c25.15,31.57,21.85-4.86,21.85-4.86-18.28,5.04-40.76-90.28-40.76-90.28-22.78-60.23,23.22,19.27,23.22,19.27-30.91-55.66-26.02-77.64-13.61-67.43,12.4,10.21,23.15,76.47,23.15,76.47-10.49-123.14-52.49-123.23-52.49-123.23,35.82,29.8,4.04,68.91,4.04,68.91-31.42-66.02-43.01-44.15-43.01-44.15-6.14,32.03-12.71-3.5-12.71-3.5-.13,54.88-10.24-15.85-10.24-15.85.45,80.4,25.83,37.22,25.83,37.22-.12-53.65,40.28,44.9,40.28,44.9,46.93,64.97-16.02,7.92-16.02,7.92,14.99,43.71-40.21-29.75-40.21-29.75-35.06-20.67-33.12,4.47-33.12,4.47,2.59,29.63-6.98-24.24-6.98-24.24-12.03,43.67-12.34-28.78-12.34-28.78-11.93,42.97,3.25,94.8,3.25,94.8-9.33-60.44,8.81-35.11,8.81-35.11,7.71,13.43,7.91,67.03,7.91,67.03,19.77,19.72,5.55,40.72,3.47,46.09-4.63,12.01,26.14,28.24,26.14,28.24,7.02,10.48-.58,17.69-.58,17.69,28.58,1.45-9.74-37.02-9.74-37.02-20.38,9.12,1.23-32.5,1.23-32.5-12.75-.82-15.73-74.36-15.73-74.36,18.15-2.76,12.4,26.48,12.4,26.48,6.91-10.8,17.23,8.69,9.41,6.83-6.66-1.59-11.89,12.79-1.08,43.7,33.87,96.85,18.23,79.13,18.23,79.13,20.46,35.84-1.31-33.48-1.31-33.48-45.55-143.81,45.71-96.58,55.55-56.17,17.72,72.71-46.6,51.37-46.6,51.37,63.16,62.74,61.18-74.08,61.18-74.08,0,0,2.74,31.45,18.95,48.47,19.94,20.94-8.38,5.81-8.38,5.81Z"/>
  <path class="cls-1" d="m286.01,328.43c28.51-14.78,9.13-29.65,9.13-29.65-7.17,25.31-65.14,3.59-65.14,3.59-41.14-3.08,21.54-18.79,21.54-18.79-43.2,9.39-51.27-8.13-39.81-18.21,11.47-10.08,49.2,11.08,49.2,11.08-65.14-51.09-87.26,1-87.26,1,33.26-28.94,35.49,30.86,35.49,30.86-48.49,4.63-43.99,30.39-43.99,30.39,12.29,24.29-8.37,13.95-8.37,13.95,26.51,28.73-13.06,4.46-13.06,4.46,39.17,41.29,31.6-12.68,31.6-12.68-26.04-27.78,42.92-26.61,42.92-26.61,56.13-24.41-4.59,24-4.59,24,29.05,4.15-35.54,34.41-35.54,34.41-28.44,32.75-15.25,43.43-15.25,43.43,15.71,12.2-15.41-3.95-15.41-3.95,14.82,37.66-20.42.34-20.42.34,14.54,37.17,47.61,45.31,47.61,45.31-34.17-19.88-12.37-29.21-12.37-29.21,10.56-2.58,36.61,25.07,36.61,25.07,19.94-14.27,22.63,14.31,24.14,19.68,3.38,12,27.42-17.74,27.42-17.74,8.77-3.25,8.26,9.93,8.26,9.93,15.73-34.72-23.04-7.18-23.04-7.18-6.3,30.05-15.09-18.44-15.09-18.44-7.1,15.4-44.28-19.18-44.28-19.18,8.21-23.96,19.34-1.61,19.34-1.61-1.6-14.2,13.27-16.86,8.25-8.12-4.27,7.44-.06,21.41,20.59,24.08,64.7,8.38,47.89,18.57,47.89,18.57,28.11-6.74-16.9-15.8-16.9-15.8-93.58-18.34-22.73-107,2.01-98.18,44.52,15.86.37,84.57.37,84.57,63.58-45.72-3.71-114.49-3.71-114.49,0,0,16.67,12.97,33.44,1.71,20.62-13.85-1.59,13.42-1.59,13.42Z"/>
</svg>